# xmcd CD database file
#
# Track frame offsets:
#	150
#	6948
#	63038
#	99331
#	138905
#	201801
#	236450
#
# Disc length: 3672 seconds
#
# Revision: 0
# Processed by: cddbd v1.5.1PL0 Copyright (c) Steve Scherf et al.
# Submitted via: CDex 1.51
#
DISCID=4f0e5607
DTITLE=Soulive - Pardise Rock Club/Boston, MA/May 06, 2005/Disc 1
DYEAR=2005
DGENRE=Jazz
TTITLE0=Intro
TTITLE1=Aladdin
TTITLE2=El Ron
TTITLE3=Vapor
TTITLE4=Uncle Junior
TTITLE5=Mellow Mood
TTITLE6=Flurries
EXTD=YEAR: 2005
EXTT0=
EXTT1=
EXTT2=
EXTT3=
EXTT4=
EXTT5=
EXTT6=
PLAYORDER=
